<svg xmlns="http://www.w3.org/2000/svg" viewBox="0 0 24 24"><title>SI#AusFootball</title><g id="base"><path d="M21.93,4.4a2.94,2.94,0,0,0-.63-1.71,3,3,0,0,0-1.7-.62,11.21,11.21,0,0,0-2.71,0A17.37,17.37,0,0,0,6.83,6.83,17.37,17.37,0,0,0,2.09,16.89a11.21,11.21,0,0,0,0,2.71,3,3,0,0,0,.62,1.7h0a2.94,2.94,0,0,0,1.71.63,11.18,11.18,0,0,0,2.7,0,17.35,17.35,0,0,0,10.07-4.73A17.35,17.35,0,0,0,21.9,7.1,11.18,11.18,0,0,0,21.93,4.4ZM9.53,18.53a.74.74,0,0,1-.53.22.73.73,0,0,1-.53-.22l-3-3a.75.75,0,0,1,1.06-1.06l3,3A.75.75,0,0,1,9.53,18.53Zm3-3a.74.74,0,0,1-.53.22.73.73,0,0,1-.53-.22l-3-3a.75.75,0,0,1,1.06-1.06l3,3A.75.75,0,0,1,12.53,15.53Zm3-3a.74.74,0,0,1-.53.22.73.73,0,0,1-.53-.22l-3-3a.75.75,0,0,1,1.06-1.06l3,3A.75.75,0,0,1,15.53,12.53Zm3-3a.74.74,0,0,1-.53.22.73.73,0,0,1-.53-.22l-3-3a.75.75,0,0,1,1.06-1.06l3,3A.75.75,0,0,1,18.53,9.53Z"/></g></svg>