<svg xmlns="http://www.w3.org/2000/svg" viewBox="0 0 24 24"><defs><style>.cls-1{fill:none;}</style></defs><title>SI#AmFootball</title><g id="base"><path d="M21.93,4.4a2.94,2.94,0,0,0-.63-1.71,3,3,0,0,0-1.7-.62,11.21,11.21,0,0,0-2.71,0l-.33.05,5.29,5.3c0-.11,0-.23,0-.34A11.18,11.18,0,0,0,21.93,4.4Z"/><path d="M2.09,16.89a11.21,11.21,0,0,0,0,2.71,3,3,0,0,0,.62,1.7h0a2.94,2.94,0,0,0,1.71.63,11.18,11.18,0,0,0,2.7,0l.34,0-5.3-5.29A3.26,3.26,0,0,1,2.09,16.89Z"/><path d="M6.83,6.83a16.8,16.8,0,0,0-4.2,7.39l7.15,7.15a16.9,16.9,0,0,0,7.39-4.2,16.9,16.9,0,0,0,4.2-7.39L14.22,2.63A16.8,16.8,0,0,0,6.83,6.83Zm4.7,10.7a.74.74,0,0,1-.53.22.73.73,0,0,1-.53-.22l-4-4a.75.75,0,0,1,1.06-1.06l4,4A.75.75,0,0,1,11.53,17.53Zm3-3a.74.74,0,0,1-.53.22.73.73,0,0,1-.53-.22l-4-4a.75.75,0,0,1,1.06-1.06l4,4A.75.75,0,0,1,14.53,14.53Zm3-3a.74.74,0,0,1-.53.22.73.73,0,0,1-.53-.22l-4-4a.75.75,0,0,1,1.06-1.06l4,4A.75.75,0,0,1,17.53,11.53Z"/><rect class="cls-1" width="24" height="24"/></g></svg>