<svg xmlns="http://www.w3.org/2000/svg" viewBox="0 0 24 24"><defs><style>.cls-1{fill-rule:evenodd;}.cls-2{fill:none;}</style></defs><title>SI#BeachSoccer</title><g id="base"><path class="cls-1" d="M12,2A10,10,0,0,0,2.2,14H5l1.1-2L4.6,9.22A7.9,7.9,0,0,1,6.4,6.38H8.91l1.18-2.15a7.93,7.93,0,0,1,4.14,0l1.16,2.11h2.43a8,8,0,0,1,1.8,2.85L18.11,12l1.1,2H21.8A10,10,0,0,0,12,2Z"/><polygon class="cls-1" points="16.42 11.93 14.22 7.93 9.82 7.93 7.62 11.93 8.74 13.97 15.29 13.97 16.42 11.93"/><rect x="2.98" y="19.98" width="2" height="2"/><rect x="6.99" y="19.98" width="2" height="2"/><rect x="10.99" y="19.98" width="2" height="2"/><rect x="14.99" y="19.98" width="2" height="2"/><rect x="18.99" y="19.98" width="2" height="2"/><rect x="2.98" y="15.98" width="2" height="2"/><rect x="6.99" y="15.98" width="2" height="2"/><rect x="10.99" y="15.98" width="2" height="2"/><rect x="14.99" y="15.98" width="2" height="2"/><rect x="18.99" y="15.98" width="2" height="2"/><rect class="cls-2" width="24" height="24"/></g></svg>