<svg xmlns="http://www.w3.org/2000/svg" viewBox="0 0 24 24"><defs><style>.cls-1{fill:none;}</style></defs><title>SI#Baseball</title><g id="base"><path d="M17.39,19.88l1.9-2.32a8.18,8.18,0,0,1,.61.55,9.94,9.94,0,0,0,0-12.22,6.35,6.35,0,0,1-.61.54l-1.9-2.32a3.17,3.17,0,0,0,.34-.3,10,10,0,0,0-11.46,0,3.17,3.17,0,0,0,.34.3L4.7,6.43c-.21-.17-.41-.35-.61-.54a10,10,0,0,0,0,12.22l.61-.55,1.91,2.32-.34.31a10,10,0,0,0,11.46,0Zm-9.72-.75L6.13,16.56a10.54,10.54,0,0,1,1.58-.78l1.12,2.78A8.31,8.31,0,0,0,7.67,19.13Zm0-10.91a11.59,11.59,0,0,1-1.58-.78L7.67,4.86a7.39,7.39,0,0,0,1.16.58Zm2.36,9.94-.69-2.92A11.24,11.24,0,0,1,11.12,15l.22,3A8.83,8.83,0,0,0,10.07,18.16Zm1-9.14a10.16,10.16,0,0,1-1.74-.27l.69-2.92a7.64,7.64,0,0,0,1.27.2Zm5.2-4.15,1.54,2.58a12.12,12.12,0,0,1-1.58.77L15.16,5.44A8.31,8.31,0,0,0,16.32,4.87ZM13.93,18.16A9.19,9.19,0,0,0,12.65,18l.22-3a11.24,11.24,0,0,1,1.74.26ZM12.87,9l-.22-3a7.93,7.93,0,0,0,1.28-.2l.68,2.93A11.24,11.24,0,0,1,12.87,9Zm2.29,9.53,1.12-2.78a12.19,12.19,0,0,1,1.58.78l-1.54,2.58A9.65,9.65,0,0,0,15.16,18.55Z"/><rect class="cls-1" width="24" height="24"/></g></svg>