<svg xmlns="http://www.w3.org/2000/svg" viewBox="0 0 24 24"><title>SI#Basketball</title><g id="base"><g id="_Group_" data-name="&lt;Group&gt;"><g id="_Group_2" data-name="&lt;Group&gt;"><path d="M11,11V8.51a10.93,10.93,0,0,1-6.59-3A9.93,9.93,0,0,0,2.05,11Z"/></g><g id="_Group_3" data-name="&lt;Group&gt;"><path d="M13,2.05V6.49a8.9,8.9,0,0,0,5.14-2.37A9.93,9.93,0,0,0,13,2.05Z"/></g><g id="_Group_4" data-name="&lt;Group&gt;"><path d="M11,6.49V2.05A9.93,9.93,0,0,0,5.86,4.12,8.9,8.9,0,0,0,11,6.49Z"/></g><g id="_Group_5" data-name="&lt;Group&gt;"><path d="M11,15.49V13H2.05a9.93,9.93,0,0,0,2.36,5.5A10.87,10.87,0,0,1,11,15.49Z"/></g><g id="_Group_6" data-name="&lt;Group&gt;"><path d="M11,17.5a9,9,0,0,0-5.14,2.38A9.93,9.93,0,0,0,11,22Z"/></g><g id="_Group_7" data-name="&lt;Group&gt;"><path d="M13,8.51V11h9a9.93,9.93,0,0,0-2.36-5.5A11,11,0,0,1,13,8.51Z"/></g><g id="_Group_8" data-name="&lt;Group&gt;"><path d="M13,17.5V22a9.93,9.93,0,0,0,5.14-2.07A9,9,0,0,0,13,17.5Z"/></g><g id="_Group_9" data-name="&lt;Group&gt;"><path d="M13,13v2.49a10.9,10.9,0,0,1,6.59,3A9.93,9.93,0,0,0,22,13Z"/></g></g></g></svg>