<svg xmlns="http://www.w3.org/2000/svg" viewBox="0 0 24 24"><defs><style>.cls-1{fill-rule:evenodd;}.cls-2{fill:none;}</style></defs><title>SI#BeachVolleyball</title><g id="base"><path class="cls-1" d="M11.47,12.94a11.49,11.49,0,0,1-1.94.19,10.77,10.77,0,0,1-3-.43A11,11,0,0,1,2,10.15,10,10,0,0,0,2.11,14H12.22A7.81,7.81,0,0,0,11.47,12.94Z"/><path class="cls-1" d="M21.57,9.44a10.08,10.08,0,0,0-1.71-3.6A9,9,0,0,0,16,7.55l.2.13a11,11,0,0,1,3.73,4.18A10.46,10.46,0,0,1,20.73,14h.89A10,10,0,0,0,21.57,9.44Z"/><path class="cls-1" d="M9.35,6.29a9,9,0,0,0-1.44,4.36l0,.31a9,9,0,0,0,3.23,0,10.85,10.85,0,0,1,7.14-6.79A10.31,10.31,0,0,0,15,2.36l-.79.25A9,9,0,0,0,9.35,6.29Z"/><path class="cls-1" d="M5.93,10.37A10.95,10.95,0,0,1,11,1.9a10.81,10.81,0,0,0-1.58.25A10,10,0,0,0,2.67,8,9.15,9.15,0,0,0,5.93,10.37Z"/><path class="cls-1" d="M15.09,9.35,14.52,9A8.94,8.94,0,0,0,13,11.66,11.28,11.28,0,0,1,14.51,14h4.14a9.38,9.38,0,0,0-.51-1.23A8.9,8.9,0,0,0,15.09,9.35Z"/><rect x="2.99" y="20" width="2" height="2"/><rect x="6.99" y="20" width="2" height="2"/><rect x="10.99" y="20" width="2" height="2"/><rect x="15" y="20" width="2" height="2"/><rect x="19" y="20" width="2" height="2"/><rect x="2.99" y="16" width="2" height="2"/><rect x="6.99" y="16" width="2" height="2"/><rect x="10.99" y="16" width="2" height="2"/><rect x="15" y="16" width="2" height="2"/><rect x="19" y="16" width="2" height="2"/><rect class="cls-2" width="24" height="24"/></g></svg>