<svg xmlns="http://www.w3.org/2000/svg" viewBox="0 0 24 24"><defs><style>.cls-1{fill:none;}</style></defs><title>SI#Bandy</title><g id="base"><path id="bandy" d="M4.85,21.35A11.39,11.39,0,0,1,3,20.5l-1-.58,2.32-4,1,.58a5.49,5.49,0,0,0,.73.36ZM20.26,2,14.84,13.93a5.57,5.57,0,0,1-.37.57l3.31,3.3a11.55,11.55,0,0,0,1.08-1.55C20.29,13.78,22,3,22,3ZM13.09,15.94A7,7,0,0,1,8,17.37l-1.21,4.5a11.62,11.62,0,0,0,9.6-2.64ZM9,8a3,3,0,1,0,3,3A3,3,0,0,0,9,8Z"/><rect class="cls-1" width="24" height="24"/></g></svg>