<svg xmlns="http://www.w3.org/2000/svg" viewBox="0 0 24 24"><defs><style>.cls-1{fill:none;}</style></defs><title>SI#Badminton</title><g id="base"><path id="badminthon" d="M5.65,13.25,11.15,2a3.4,3.4,0,0,1,1,.67A3.25,3.25,0,0,1,13,5.8L9.43,10.44a.87.87,0,0,0,.17,1.22.84.84,0,0,0,.52.18.88.88,0,0,0,.7-.34l3.93-5.15a3.18,3.18,0,0,1,2,.92,3.23,3.23,0,0,1,.93,2l-5.19,3.86a.87.87,0,0,0-.18,1.22.89.89,0,0,0,.7.36.87.87,0,0,0,.53-.18L18.33,11A3.26,3.26,0,0,1,22,12.84L10.75,18.35ZM4.54,14.86h0L3,16.45a3.25,3.25,0,0,0,4.59,4.6l1.59-1.59Z"/><rect class="cls-1" width="24" height="24"/></g></svg>