<svg xmlns="http://www.w3.org/2000/svg" viewBox="0 0 24 24"><defs><style>.cls-1{fill:none;}</style></defs><title>SI#Biathlon</title><g id="base"><path id="_Compound_Path_" data-name="&lt;Compound Path&gt;" d="M12,2A10,10,0,1,0,22,12,10,10,0,0,0,12,2Zm7.93,9h-2A6,6,0,0,0,13,6.09v-2A8,8,0,0,1,19.93,11ZM11,11H8.14A4,4,0,0,1,11,8.14Zm0,2v2.86A4,4,0,0,1,8.14,13Zm2,0h2.86A4,4,0,0,1,13,15.86Zm0-2V8.14A4,4,0,0,1,15.86,11ZM11,4.07v2A6,6,0,0,0,6.09,11h-2A8,8,0,0,1,11,4.07ZM4.07,13h2A6,6,0,0,0,11,17.91v2A8,8,0,0,1,4.07,13ZM13,19.93v-2A6,6,0,0,0,17.91,13h2A8,8,0,0,1,13,19.93Z"/><rect class="cls-1" width="24" height="24"/></g></svg>