<svg xmlns="http://www.w3.org/2000/svg" viewBox="0 0 24 24"><title>SI#Floorball</title><g id="base"><path d="M12,2A10,10,0,1,0,22,12,10,10,0,0,0,12,2Zm0,1a1,1,0,1,1-1,1A1,1,0,0,1,12,3ZM4,13a1,1,0,1,1,1-1A1,1,0,0,1,4,13Zm3.5,5A1.5,1.5,0,1,1,9,16.47,1.5,1.5,0,0,1,7.5,18Zm0-9A1.5,1.5,0,1,1,9,7.47,1.5,1.5,0,0,1,7.5,9ZM12,21a1,1,0,1,1,1-1A1,1,0,0,1,12,21Zm0-7a2,2,0,1,1,2-2A2,2,0,0,1,12,14Zm4.5,4a1.5,1.5,0,1,1,1.5-1.5A1.5,1.5,0,0,1,16.5,18Zm0-9A1.5,1.5,0,1,1,18,7.47,1.5,1.5,0,0,1,16.5,9ZM20,13a1,1,0,1,1,1-1A1,1,0,0,1,20,13Z"/></g></svg>