<svg xmlns="http://www.w3.org/2000/svg" viewBox="0 0 24 24"><defs><style>.cls-1{fill:none;}</style></defs><title>SI#Lottery</title><g id="base"><path d="M19.44,11.75a4.4,4.4,0,0,0-2.62-.82h-.24a14.72,14.72,0,0,0-1.49.08l.11,0a11.19,11.19,0,0,0,2.38-1,4.3,4.3,0,0,0,2-2.93A2.69,2.69,0,0,0,18,4.22h0a2.88,2.88,0,0,0-1.18-.27,2.85,2.85,0,0,0-1.76.66,2.72,2.72,0,0,0-1.56-2.33h0a2.77,2.77,0,0,0-2.22-.06A3.25,3.25,0,0,0,9.47,4.6a4.28,4.28,0,0,0,.21,2.73A13.91,13.91,0,0,0,10.45,9l-.12-.14A11.13,11.13,0,0,0,8.51,7.08,4.59,4.59,0,0,0,6,6.28a3.77,3.77,0,0,0-1,.13A2.71,2.71,0,0,0,3,9H3a2.74,2.74,0,0,0,1.52,2.55A2.73,2.73,0,0,0,3,13.88v0A2.77,2.77,0,0,0,3.82,16,3,3,0,0,0,6,16.75H6a5.3,5.3,0,0,0,.77-.06,4.32,4.32,0,0,0,2.43-1.28l.26-.27A9.76,9.76,0,0,1,5.2,20.26l.51.86h0l.52.86a11.83,11.83,0,0,0,5.11-6.25,8.12,8.12,0,0,0,.06,1.56,4.32,4.32,0,0,0,2,2.93,2.7,2.7,0,0,0,3.25-.37h0A2.71,2.71,0,0,0,17.37,17a3.47,3.47,0,0,0,.92.14h0a2.71,2.71,0,0,0,1.82-.73h0a2.81,2.81,0,0,0,.88-2A3.25,3.25,0,0,0,19.44,11.75Z"/><rect class="cls-1" width="24" height="24"/></g></svg>