<svg xmlns="http://www.w3.org/2000/svg" viewBox="0 0 24 24"><defs><style>.cls-1{fill:none;}</style></defs><title>SI#Olympics</title><g id="base"><path id="ic_olympics" d="M20.5,6A3.5,3.5,0,0,0,17,9.48,3.38,3.38,0,0,0,17.37,11a3.21,3.21,0,0,0-1.74,0A3.38,3.38,0,0,0,16,9.48a3.5,3.5,0,0,0-7,0,3.37,3.37,0,0,0,.43,1.64A3.62,3.62,0,0,0,8.49,11a3.61,3.61,0,0,0-.93.14A3.37,3.37,0,0,0,8,9.48a3.56,3.56,0,1,0-2.57,3.36A3.49,3.49,0,1,0,12,14.48a3.37,3.37,0,0,0-.43-1.64,3.62,3.62,0,0,0,.94.14,3.5,3.5,0,0,0,.86-.12A3.5,3.5,0,1,0,20,14.38a3.38,3.38,0,0,0-.37-1.52,3.58,3.58,0,0,0,.87.12,3.5,3.5,0,0,0,0-7ZM3,9.48A1.5,1.5,0,1,1,4.49,11,1.5,1.5,0,0,1,3,9.48ZM8.49,16a1.5,1.5,0,1,1,1.5-1.5A1.5,1.5,0,0,1,8.49,16ZM11,9.48A1.5,1.5,0,1,1,12.5,11,1.5,1.5,0,0,1,11,9.48Zm5.5,6.4a1.5,1.5,0,1,1,1.5-1.5A1.5,1.5,0,0,1,16.5,15.88Zm4-4.9A1.5,1.5,0,1,1,22,9.48,1.5,1.5,0,0,1,20.5,11Z"/><rect class="cls-1" width="24" height="24"/></g></svg>