<svg xmlns="http://www.w3.org/2000/svg" viewBox="0 0 24 24"><defs><style>.cls-1{fill:none;}</style></defs><title>SI#Rugby</title><g id="base"><path d="M17.47,2.1,17.59,2l-.69.06A17.37,17.37,0,0,0,6.83,6.83,17.37,17.37,0,0,0,2.09,16.9L2,17.59a1.27,1.27,0,0,1,.07-.12A42.6,42.6,0,0,1,8.82,8.82,42.32,42.32,0,0,1,17.47,2.1Z"/><path d="M21.91,6.54a42.78,42.78,0,0,1-6.73,8.65,43,43,0,0,1-8.64,6.72L6.43,22l.67-.06a17.37,17.37,0,0,0,10.07-4.74A17.37,17.37,0,0,0,21.91,7.1L22,6.42A.67.67,0,0,0,21.91,6.54Z"/><path d="M20.17,5.55a14.58,14.58,0,0,0,.89-1.81c.17-.47.25-.79.13-.93s-.46,0-.93.13a14.16,14.16,0,0,0-1.81.9A41.94,41.94,0,0,0,3.83,18.46a13.92,13.92,0,0,0-.89,1.81c-.17.46-.25.79-.13.92h0c.13.12.46,0,.93-.13a14.58,14.58,0,0,0,1.81-.89,41,41,0,0,0,8.22-6.4A41.35,41.35,0,0,0,20.17,5.55Z"/><rect class="cls-1" width="24" height="24"/></g></svg>