<svg xmlns="http://www.w3.org/2000/svg" viewBox="0 0 24 24"><defs><style>.cls-1{fill:none;}</style></defs><title>SI#Racing</title><g id="base"><path id="auto-moto-racing" d="M10,2.19A10.19,10.19,0,0,0,2.28,9.93a10.75,10.75,0,0,0,.49,6.47A2.64,2.64,0,0,0,4.54,18L18.65,21.9A2.69,2.69,0,0,0,22,19.22v-6.8A10.15,10.15,0,0,0,10,2.19ZM20,17.47A1.51,1.51,0,0,1,18,19L9.75,16.69A2.33,2.33,0,0,1,8,14.45,2.46,2.46,0,0,1,10.49,12H20Zm-9.5-4a1,1,0,1,1-1,1A1,1,0,0,1,10.5,13.5Z"/><rect class="cls-1" width="24" height="24"/></g></svg>