<svg xmlns="http://www.w3.org/2000/svg" viewBox="0 0 24 24"><defs><style>.cls-1{fill:none;}</style></defs><title>SI#Squash</title><g id="base"><path d="M20,4a7,7,0,0,0-9.9,0L7.94,6.17c-2.29,2.29-1.49,7.6-1.11,9.5L2,20.5,3.5,22l4.83-4.83a22.62,22.62,0,0,0,4.28.45c2,0,4-.34,5.22-1.56L20,13.94A7,7,0,0,0,20,4Zm-.3,6.77L18.54,9.7l1.4-1.4A5,5,0,0,1,19.66,10.81Zm-6.07,3.84.84.83a11.46,11.46,0,0,1-1.8.13Zm-3.6.77c-.42-.05-.83-.12-1.21-.2-.07-.35-.14-.76-.2-1.22l2.19-2.18,1.41,1.41ZM8.51,9.57l.84.84-1,1A11.49,11.49,0,0,1,8.51,9.57Zm3.67.84L14.3,8.29,15.71,9.7l-2.12,2.12Zm3.53-3.54,2.05-2a4.28,4.28,0,0,1,.78.64,4.28,4.28,0,0,1,.64.78l-2.05,2Zm0-2.81-1.4,1.4L13.19,4.34A5,5,0,0,1,15.7,4.06Zm-4.23,1.4,1.42,1.41L10.77,9,9.35,7.58Zm5,9.19L15,13.23l2.12-2.12,1.41,1.42Z"/><circle cx="4.5" cy="4.5" r="2.5"/><rect class="cls-1" width="24" height="24"/></g></svg>