<svg xmlns="http://www.w3.org/2000/svg" viewBox="0 0 24 24"><defs><style>.cls-1{fill-rule:evenodd;}</style></defs><title>SI#Soccer</title><g id="base"><path class="cls-1" d="M12,2A10,10,0,1,0,22,12,10,10,0,0,0,12,2Zm5.82,15.6H15.47l-1.15,2.09a7.67,7.67,0,0,1-2.21.31,8.4,8.4,0,0,1-2-.25L8.91,17.57H6.4a7.86,7.86,0,0,1-1.8-2.85L6.11,12,4.6,9.22A8,8,0,0,1,6.4,6.37H8.91l1.18-2.14a7.93,7.93,0,0,1,4.14,0l1.16,2.11h2.43a8,8,0,0,1,1.8,2.85L18.11,12l1.51,2.75A7.86,7.86,0,0,1,17.82,17.57ZM14.2,8l2.2,4-2.2,4H9.8L7.6,12,9.8,8Z"/></g></svg>