<svg xmlns="http://www.w3.org/2000/svg" viewBox="0 0 24 24"><defs><style>.cls-1{fill:none;}</style></defs><title>SI#SoccerOutrights</title><g id="base"><path id="football-results" d="M20,6.37a2.58,2.58,0,0,1-2,2.5V5h2ZM14,12l-2-1.1L10,12l.5-2L9,8h2.1L12,6l.9,2H15l-1.5,2ZM4,6.37V5H6v3.9A2.67,2.67,0,0,1,4,6.37ZM21,3H18V2H6V3H3A.94.94,0,0,0,2,4v2.4a4.54,4.54,0,0,0,4,4.5V11a6,6,0,0,0,4.7,5.9L10,19H7.7a1,1,0,0,0-.9.7L6,22H18l-.8-2.3a1,1,0,0,0-.9-.7H14l-.7-2.1A6,6,0,0,0,18,11v-.1a4.54,4.54,0,0,0,4-4.5V4A.94.94,0,0,0,21,3Z"/><rect class="cls-1" width="24" height="24"/></g></svg>