<svg xmlns="http://www.w3.org/2000/svg" viewBox="0 0 24 24"><defs><style>.cls-1{fill:none;}</style></defs><title>SI#TableTennis</title><g id="base"><path d="M5.87,15.87,2,19.74,4.26,22l3.87-3.87a8.05,8.05,0,0,0,5.25,1.26L4.61,10.62A8.05,8.05,0,0,0,5.87,15.87Z"/><path d="M19.67,4.33a8,8,0,0,0-7.52-2.1,4.21,4.21,0,0,1,.52,2A4.23,4.23,0,0,1,8.44,8.44a4.17,4.17,0,0,1-2.74-1,7.53,7.53,0,0,0-.5,1L15.62,18.8a7.88,7.88,0,0,0,2.55-1.69l1.5-1.5A8,8,0,0,0,19.67,4.33Z"/><circle cx="8.44" cy="4.22" r="2.22"/><rect class="cls-1" width="24" height="24"/></g></svg>