<svg xmlns="http://www.w3.org/2000/svg" viewBox="0 0 24 24"><title>SI#UFC</title><g id="base"><path d="M1,15.86,8.14,23l4.27-4.26L5.26,11.59Zm8.57,2.85L8.14,20.14,3.86,15.86l1.43-1.43Z"/><path d="M22.41,8.74h0l-.72.72-.64.64-.08.06a1,1,0,0,1-.63.24,1,1,0,0,1-.72-.3,1,1,0,0,1-.05-1.34.56.56,0,0,1,.05-.08L20.27,8,21,7.31,19.55,5.88l-.71.71-.65.65a1,1,0,0,1-.71.29,1,1,0,0,1-.72-.29h0a1,1,0,0,1,0-1.43l.65-.65.71-.71L16.69,3,16,3.73l-.65.65-.08,0a.94.94,0,0,1-.63.24,1,1,0,0,1-.71-.29A1,1,0,0,1,13.85,3L13.91,3l.64-.64.71-.72h0a2,2,0,0,0-2.85,0L9.72,4.28a2.28,2.28,0,0,0-.3.38L6.32,9.8l.37.36,3.57,3.58,3.58,3.57.36.37,5.14-3.1a2.28,2.28,0,0,0,.38-.3l2.69-2.69A2,2,0,0,0,22.41,8.74Zm-7.86,6.42,0,0-1.4-1.39-1.43-1.43-1.43-1.43L8.87,9.48l0,0L11,5.88l0,0L13.12,8l1.43,1.43L16,10.88l2.1,2.1,0,0Z"/></g></svg>