<svg xmlns="http://www.w3.org/2000/svg" viewBox="0 0 24 24"><title>SI#Volleyball</title><g id="base"><path d="M17,8.8l.16.17a11,11,0,0,1,2.77,9,10,10,0,0,0,2-6,9.88,9.88,0,0,0-.79-3.9A8.86,8.86,0,0,0,17,8.8Z"/><path d="M15.68,10.33l-.47-.51a9,9,0,0,0-2.12,2.24,11.1,11.1,0,0,1,1.14,4.84,11.07,11.07,0,0,1-1.22,5,10,10,0,0,0,4-1.34l.07-.15a9,9,0,0,0-1.41-10.1Z"/><path d="M16.44,3.57a9,9,0,0,0-8,6.28l-.1.3a9,9,0,0,0,3.13.79,11.27,11.27,0,0,1,3.62-3.42A11,11,0,0,1,20,6.08a9.83,9.83,0,0,0-2.74-2.56Z"/><path d="M7.37,16.17a9.12,9.12,0,0,0,4.58.18l.24-.06a8.93,8.93,0,0,0-.9-3.36A11,11,0,0,1,6.52,11.5,11.15,11.15,0,0,1,2.79,7.94,10,10,0,0,0,2,11.7l.54.82A9,9,0,0,0,7.37,16.17Z"/><path d="M6.54,9.1a11,11,0,0,1,7-7A10.21,10.21,0,0,0,11.94,2,10,10,0,0,0,4,6,9.13,9.13,0,0,0,6.54,9.1Z"/><path d="M12.11,18.35a11.41,11.41,0,0,1-2.1.21,11.09,11.09,0,0,1-3.23-.48,11.19,11.19,0,0,1-4.09-2.3,10,10,0,0,0,8,6.11A9,9,0,0,0,12.11,18.35Z"/></g></svg>