<svg xmlns="http://www.w3.org/2000/svg" viewBox="0 0 24 24"><defs><style>.cls-1{fill:none;}</style></defs><title>SI#WinterSports</title><g id="base"><rect class="cls-1" width="24" height="24"/><path id="winter-sports" d="M21.93,11H17.76L21,7.79,19.59,6.37,14.93,11h-2V9l4.66-4.66L16.17,3,12.93,6.2V2h-2V6.2L7.69,3,6.27,4.37,10.93,9v2h-2L4.27,6.37,2.86,7.79,6.1,11H1.93v2H6.1L2.86,16.27l1.41,1.42L8.93,13h2v2L6.27,19.69,7.69,21.1l3.24-3.24V22h2V17.86l3.24,3.24,1.42-1.41L12.93,15V13h2l4.66,4.66L21,16.27,17.76,13h4.17Z"/></g></svg>