<svg xmlns="http://www.w3.org/2000/svg" viewBox="0 0 24 24"><defs><style>.cls-1{fill:none;}</style></defs><title>SI#WaterPolo</title><g id="base"><rect class="cls-1" width="24" height="24"/><g id="ic_water_polo"><path id="_Path_" data-name="&lt;Path&gt;" d="M21.93,22a3.83,3.83,0,0,1-2.18-.64A1.88,1.88,0,0,0,18.6,21a1.8,1.8,0,0,0-1.15.36,4,4,0,0,1-4.36,0A1.88,1.88,0,0,0,11.94,21a1.8,1.8,0,0,0-1.15.36A3.83,3.83,0,0,1,8.61,22a3.83,3.83,0,0,1-2.18-.64A1.88,1.88,0,0,0,5.28,21a1.82,1.82,0,0,0-1.15.36,4,4,0,0,1-2.2.64V20a1.8,1.8,0,0,0,1.15-.36A3.83,3.83,0,0,1,5.26,19a3.83,3.83,0,0,1,2.18.64A1.88,1.88,0,0,0,8.59,20a1.8,1.8,0,0,0,1.15-.36A3.83,3.83,0,0,1,11.92,19a3.83,3.83,0,0,1,2.18.64,1.88,1.88,0,0,0,1.15.36,1.82,1.82,0,0,0,1.15-.36,4,4,0,0,1,4.36,0,1.88,1.88,0,0,0,1.15.36v2Z"/><path id="_Path_2" data-name="&lt;Path&gt;" d="M21.93,18a3.83,3.83,0,0,1-2.18-.64A1.88,1.88,0,0,0,18.6,17a1.8,1.8,0,0,0-1.15.36,4,4,0,0,1-4.36,0A1.88,1.88,0,0,0,11.94,17a1.8,1.8,0,0,0-1.15.36A3.83,3.83,0,0,1,8.61,18a3.83,3.83,0,0,1-2.18-.64A1.88,1.88,0,0,0,5.28,17a1.82,1.82,0,0,0-1.15.36,4,4,0,0,1-2.2.64V16a1.8,1.8,0,0,0,1.15-.36A3.83,3.83,0,0,1,5.26,15a3.83,3.83,0,0,1,2.18.64A1.88,1.88,0,0,0,8.59,16a1.8,1.8,0,0,0,1.15-.36A3.83,3.83,0,0,1,11.92,15a3.83,3.83,0,0,1,2.18.64,1.88,1.88,0,0,0,1.15.36,1.82,1.82,0,0,0,1.15-.36,4,4,0,0,1,4.36,0,1.88,1.88,0,0,0,1.15.36v2Z"/><path d="M11.65,11.09a9,9,0,0,1-3.44.7H7.74a9.09,9.09,0,0,1-3.92-1.15A7.64,7.64,0,0,0,4.43,13,4,4,0,0,1,5.26,13a3.83,3.83,0,0,1,2.18.64A1.88,1.88,0,0,0,8.59,14a1.8,1.8,0,0,0,1.15-.36A3.83,3.83,0,0,1,11.92,13,4,4,0,0,1,13,13.1a2.61,2.61,0,0,0,.27-.19l0,0A7.18,7.18,0,0,0,11.65,11.09Z"/><path d="M18.92,6.32A8.06,8.06,0,0,0,17.11,4a7,7,0,0,0-2.54,1.78,9,9,0,0,1,3.65,2.6,9.09,9.09,0,0,1,1.51,2.56A8,8,0,0,0,18.92,6.32Z"/><path d="M8.69,9.68v.09a6.82,6.82,0,0,0,2.17-.52,8.94,8.94,0,0,1,1.35-3.72,9.13,9.13,0,0,1,2.95-2.82A7.77,7.77,0,0,0,12.85,2l-.8.47A7,7,0,0,0,8.69,9.68Z"/><path d="M13.78,7.6l-.34-.13a6.66,6.66,0,0,0-.59,2,9,9,0,0,1,2.54,3,8.76,8.76,0,0,1,.53,1.31,2.78,2.78,0,0,0,.48-.25A3.84,3.84,0,0,1,18.23,13a7,7,0,0,0-1.54-3.33A6.9,6.9,0,0,0,13.78,7.6Z"/><path d="M7.13,5.45A9,9,0,0,1,9,2.47c-.27.1-.53.22-.8.35A8,8,0,0,0,4,8.31a6.88,6.88,0,0,0,2.71,1.3A9.05,9.05,0,0,1,7.13,5.45Z"/></g></g></svg>