<svg xmlns="http://www.w3.org/2000/svg" viewBox="0 0 32 24"><title>TbI#Sports</title><g id="base"><path d="M27.11,15.29a11.88,11.88,0,0,1,3.16-3.57,7.62,7.62,0,0,0-2-1.71,7.4,7.4,0,0,0-4.5-1,12.42,12.42,0,0,1-1.43,8.7A12.33,12.33,0,0,1,19,21.52l0,0a7.45,7.45,0,0,0,6.84,2.35l0-.11A12,12,0,0,1,27.11,15.29Z"/><path d="M31.74,14.56a7.62,7.62,0,0,0-.88-2A10.85,10.85,0,0,0,28,15.79a11,11,0,0,0-1.24,7.79l0,.06a7.48,7.48,0,0,0,5-9.08Z"/><path d="M21.46,17.25a11.5,11.5,0,1,0-7,5.36A11.45,11.45,0,0,0,21.46,17.25ZM19.28,5,21,8l-1.73,3H15.83L14.1,8l1.73-3ZM9.77,1.51h3.46l1.73,3-1.73,3H9.77L8,4.51ZM3.71,5H7.17L8.9,8,7.17,11H3.71L2,8Zm0,13L2,15l1.73-3H7.17L8.9,15,7.17,18Zm9.52,3.5H9.77L8,18.49l1.73-3h3.46l1.73,3Zm2.6-3.5L14.1,15l1.73-3h3.45L21,15l-1.73,3Z"/></g></svg>