<svg id="Layer_1" data-name="Layer 1" xmlns="http://www.w3.org/2000/svg" viewBox="0 0 24 24"><title>UII_User</title><path id="ssss-a" d="M14.36,14.38a1,1,0,0,1,.64.81l-.11,1.48H9.11L9,15.18a1,1,0,0,1,.63-.79A7.32,7.32,0,0,1,12,14,7.48,7.48,0,0,1,14.36,14.38ZM12,10.83c-.72,0-1.33-.8-1.33-1.75S11.32,7.33,12,7.33a1.61,1.61,0,0,1,1.34,1.75A1.61,1.61,0,0,1,12,10.83Zm4,6.58a.47.47,0,0,1-.48.42H8.47A.47.47,0,0,1,8,17.41l-.15-2.14a2.15,2.15,0,0,1,1.42-2,8.57,8.57,0,0,1,5.48,0,2.15,2.15,0,0,1,1.42,2ZM12,6.17a2.73,2.73,0,0,1,2.5,2.91A2.74,2.74,0,0,1,12,12a2.74,2.74,0,0,1-2.5-2.92A2.73,2.73,0,0,1,12,6.17ZM12,2A10,10,0,1,0,22,12,10,10,0,0,0,12,2Z"/></svg>