<svg id="Layer_1" data-name="Layer 1" xmlns="http://www.w3.org/2000/svg" viewBox="0 0 24 24"><title>UII_EyeSlashOutline</title><g id="Outline"><path d="M12,6a9.77,9.77,0,0,1,8.82,5.5,9.65,9.65,0,0,1-2.41,3.12L19.82,16A11.8,11.8,0,0,0,23,11.5,11.83,11.83,0,0,0,8.36,4.57L10,6.22A10.11,10.11,0,0,1,12,6Z"/><path d="M10.93,7.14,13,9.21a2.5,2.5,0,0,1,1.28,1.28l2.07,2.07a4.68,4.68,0,0,0,.14-1.07A4.48,4.48,0,0,0,12,7,4.24,4.24,0,0,0,10.93,7.14Z"/><path d="M2,3.87,4.69,6.55A11.74,11.74,0,0,0,1,11.5,11.83,11.83,0,0,0,12,19a11.73,11.73,0,0,0,4.32-.82l3.42,3.42,1.41-1.41L3.42,2.45Zm7.5,7.5L12.12,14,12,14a2.5,2.5,0,0,1-2.5-2.5C9.5,11.45,9.51,11.42,9.51,11.37ZM6.11,8,7.86,9.72A4.6,4.6,0,0,0,7.5,11.5a4.51,4.51,0,0,0,6.27,4.14l1,1A10.43,10.43,0,0,1,12,17a9.77,9.77,0,0,1-8.82-5.5A9.9,9.9,0,0,1,6.11,8Z"/></g></svg>