<svg id="Layer_1" data-name="Layer 1" xmlns="http://www.w3.org/2000/svg" viewBox="0 0 24 24"><title>UII_Bonuses</title><path d="M21.45,7.39a1.77,1.77,0,0,0-1.28-.5H17.28a2.14,2.14,0,0,0,.17-.84,2.55,2.55,0,0,0-.81-1.83,2.69,2.69,0,0,0-1.92-.72,2.76,2.76,0,0,0-1.25.28,2.87,2.87,0,0,0-1,.76L12,5.18l-.51-.64a2.87,2.87,0,0,0-1-.76A2.76,2.76,0,0,0,9.28,3.5a2.69,2.69,0,0,0-1.92.72,2.55,2.55,0,0,0-.81,1.83,2.14,2.14,0,0,0,.17.84H3.83a1.77,1.77,0,0,0-1.28.5A1.8,1.8,0,0,0,2,8.61v2.55a1,1,0,0,0,.3.6.89.89,0,0,0,.64.24v6.82A1.58,1.58,0,0,0,3.45,20a1.78,1.78,0,0,0,1.27.48H19.28A1.78,1.78,0,0,0,20.55,20a1.58,1.58,0,0,0,.51-1.2V12a.89.89,0,0,0,.64-.24,1,1,0,0,0,.3-.6V8.61A1.8,1.8,0,0,0,21.45,7.39ZM8.64,5.46a1,1,0,0,1,.64-.28,1,1,0,0,1,.63.28.73.73,0,0,1,.26.59.76.76,0,0,1-.26.6,1,1,0,0,1-1.27,0,.79.79,0,0,1-.26-.6A.76.76,0,0,1,8.64,5.46Zm2.47,13.36H4.72V12h6.39Zm0-8.54H3.83V8.61h7.28Zm3-4.82a.86.86,0,0,1,1.27,0,.76.76,0,0,1,.26.59.79.79,0,0,1-.26.6,1,1,0,0,1-1.27,0,.76.76,0,0,1-.26-.6A.73.73,0,0,1,14.09,5.46Zm5.19,13.36H12.89V12h6.39Zm.89-8.54H12.89V8.61h7.28Z"/></svg>